<?xml version="1.0" encoding="utf-8"?>
<!-- Generator: Adobe Illustrator 16.0.0, SVG Export Plug-In . SVG Version: 6.00 Build 0)  -->
<!DOCTYPE svg PUBLIC "-//W3C//DTD SVG 1.1//EN" "http://www.w3.org/Graphics/SVG/1.1/DTD/svg11.dtd">
<svg version="1.1" id="Capa_1" xmlns="http://www.w3.org/2000/svg" xmlns:xlink="http://www.w3.org/1999/xlink" x="0px" y="0px"
	 width="222.63px" height="54.502px" viewBox="0 0 222.63 54.502" enable-background="new 0 0 222.63 54.502" xml:space="preserve">
<g>
	<g>
		<path fill="#E5AF2D" d="M0.307,27.464c0-14.711,11.882-26.593,26.594-26.593c14.71,0,26.592,11.882,26.592,26.593
			c0,14.71-11.882,26.593-26.592,26.593C12.189,54.056,0.307,42.174,0.307,27.464"/>
		<path fill="#E5AF2D" d="M83.952,27.464c0-14.711,11.881-26.593,26.592-26.593c14.711,0,26.593,11.882,26.593,26.593
			c0,14.71-11.881,26.593-26.593,26.593C95.833,54.056,83.952,42.174,83.952,27.464"/>
		<path fill="#E5AF2D" d="M167.597,27.464c0-14.711,11.881-26.593,26.593-26.593c14.711,0,26.593,11.882,26.593,26.593
			c0,14.71-11.882,26.593-26.593,26.593C179.573,54.056,167.597,42.174,167.597,27.464"/>
		<rect x="26.9" y="23.503" fill="#E5AF2D" width="167.29" height="7.921"/>
	</g>
</g>
</svg>
